<svg width="120" height="116" viewBox="0 0 120 116" fill="none" xmlns="http://www.w3.org/2000/svg">
<g style="mix-blend-mode:luminosity">
<path d="M109.537 25.7118C108.854 23.5235 107.212 21.7456 105.161 20.6515L63.4477 0.683824C62.3536 0.136765 61.1227 0 60.0286 0C58.9345 0 57.7036 0 56.6095 0.273529L14.8962 20.3779C12.8447 21.3353 11.3403 23.1132 10.7933 25.4382L0.535907 70.4338C0.125612 72.7589 0.672672 75.0838 2.04032 76.9986L30.8977 112.694C32.5389 114.335 34.8639 115.429 37.1889 115.566H83.1418C85.6036 115.84 87.9286 114.746 89.433 112.694L118.29 76.9986C119.658 75.0838 120.205 72.7589 119.932 70.4338L109.537 25.7118Z" fill="#326DE6"/>
<path d="M103.109 68.656C102.973 68.656 102.836 68.656 102.836 68.5192C102.836 68.3824 102.562 68.3824 102.289 68.3824C101.742 68.2457 101.195 68.2457 100.648 68.2457C100.374 68.2457 100.101 68.2457 99.8271 68.1089H99.6904C98.1859 67.9721 96.5448 67.6986 95.0403 67.2883C94.6301 67.1515 94.2198 66.7412 94.083 66.331C94.2198 66.331 94.083 66.331 94.083 66.331L92.9889 66.0574C93.5359 62.0912 93.2624 57.9883 92.4418 54.0221C91.4845 50.0559 89.8433 46.2265 87.6551 42.8074L88.4756 41.9868V41.8501C88.4756 41.4398 88.6124 40.8927 88.8859 40.6192C90.1168 39.5251 91.3477 38.7045 92.7153 37.8839C92.9889 37.7471 93.2624 37.6104 93.5359 37.4736C94.083 37.2001 94.4933 36.9265 95.0403 36.653C95.1771 36.5162 95.3139 36.5162 95.4506 36.3795C95.5874 36.2427 95.4506 36.2427 95.4506 36.1059C96.6815 35.1486 96.9551 33.5074 95.9977 32.2765C95.5874 31.7295 94.7668 31.3192 94.083 31.3192C93.3992 31.3192 92.7153 31.5927 92.1683 32.003L92.0315 32.1398C91.8948 32.2765 91.758 32.4133 91.6212 32.4133C91.2109 32.8236 90.8006 33.2339 90.5271 33.6442C90.3904 33.9177 90.1168 34.0545 89.9801 34.1912C89.0227 35.2854 87.7918 36.3795 86.5609 37.2001C86.2874 37.3368 86.0139 37.4736 85.7403 37.4736C85.6036 37.4736 85.3301 37.4736 85.1933 37.3368H85.0565L83.9624 38.0206C82.8683 36.9265 81.6374 35.8324 80.5433 34.7383C75.483 30.7721 69.1918 28.3103 62.7639 27.6265L62.6271 26.5324V26.6692C62.2168 26.3956 62.08 25.9853 61.9433 25.5751C61.9433 24.0706 61.9433 22.5662 62.2168 20.9251V20.7883C62.2168 20.5148 62.3536 20.2412 62.3536 19.9677C62.4903 19.4206 62.4903 18.8736 62.6271 18.3265V17.5059C62.7639 16.1383 61.6697 14.7706 60.3021 14.6339C59.4815 14.4971 58.6609 14.9074 57.9771 15.5912C57.43 16.1383 57.1565 16.8221 57.1565 17.5059V18.1898C57.1565 18.7368 57.2933 19.2839 57.43 19.8309C57.5668 20.1045 57.5668 20.378 57.5668 20.6515V20.7883C57.8403 22.2927 57.8403 23.7971 57.8403 25.4383C57.7036 25.8486 57.5668 26.2589 57.1565 26.5324V26.8059L57.0197 27.9001C55.5153 28.0368 54.0109 28.3103 52.3697 28.5839C45.9418 29.9515 40.0609 33.3706 35.5477 38.1574L34.7271 37.6104H34.5903C34.4536 37.6104 34.3168 37.7471 34.0433 37.7471C33.7697 37.7471 33.4962 37.6104 33.2227 37.4736C31.9918 36.5162 30.7609 35.4221 29.8036 34.328C29.6668 34.0545 29.3933 33.9177 29.2565 33.7809C28.8462 33.3706 28.5727 32.9603 28.1624 32.5501C28.0256 32.4133 27.8889 32.4133 27.7521 32.2765C27.6153 32.1398 27.6153 32.1398 27.6153 32.1398C27.0683 31.7295 26.3844 31.4559 25.7006 31.4559C24.88 31.4559 24.1962 31.7295 23.7859 32.4133C22.9653 33.6442 23.2388 35.2854 24.333 36.2427C24.4697 36.2427 24.4697 36.3795 24.4697 36.3795C24.4697 36.3795 24.7433 36.653 24.88 36.653C25.2903 36.9265 25.8374 37.2001 26.3844 37.4736C26.658 37.6104 26.9315 37.7471 27.205 37.8839C28.5727 38.7045 29.9403 39.5251 31.0344 40.6192C31.308 40.8927 31.5815 41.4398 31.4447 41.8501V41.7133L32.2653 42.5339C32.1286 42.8074 31.9918 42.9442 31.855 43.2177C27.6153 49.9192 25.8374 57.8515 27.0683 65.6471L25.9741 65.9207C25.9741 66.0574 25.8374 66.0574 25.8374 66.0574C25.7006 66.4677 25.2903 66.7412 24.88 67.0148C23.3756 67.4251 21.8712 67.6986 20.23 67.8354C19.9565 67.8354 19.683 67.8354 19.4094 67.9721C18.8624 67.9721 18.3153 68.1089 17.7683 68.1089C17.6315 68.1089 17.4947 68.2457 17.2212 68.2457C17.0844 68.2457 17.0844 68.2457 16.9477 68.3824C15.4433 68.656 14.4859 70.0236 14.7594 71.528C15.033 72.7589 16.2638 73.5795 17.4947 73.4427C17.7683 73.4427 17.905 73.4427 18.1786 73.306C18.3153 73.306 18.3153 73.306 18.3153 73.1692C18.3153 73.0324 18.7256 73.1692 18.8624 73.1692C19.4094 73.0324 19.9565 72.7589 20.3668 72.6221C20.6403 72.4854 20.9138 72.3486 21.1874 72.3486H21.3241C22.8286 71.8015 24.1962 71.3912 25.8374 71.1177H25.9741C26.3844 71.1177 26.7947 71.2545 27.0683 71.528C27.205 71.528 27.205 71.6648 27.205 71.6648L28.4359 71.528C30.4874 77.8192 34.3168 83.4265 39.6506 87.5295C40.8815 88.4868 41.9756 89.3074 43.3433 89.9913L42.6594 90.9486C42.6594 91.0854 42.7962 91.0854 42.7962 91.0854C43.0697 91.4957 43.0697 92.0427 42.933 92.453C42.3859 93.8207 41.5653 95.1883 40.7447 96.4192V96.556C40.608 96.8295 40.4712 96.9663 40.1977 97.2398C39.9242 97.5133 39.6506 98.0604 39.2403 98.6074C39.1036 98.7442 39.1036 98.881 38.9668 99.0177C38.9668 99.0177 38.9668 99.1545 38.83 99.1545C38.1462 100.522 38.6933 102.163 39.9242 102.847C40.1977 102.984 40.608 103.121 40.8815 103.121C41.9756 103.121 42.933 102.437 43.48 101.479C43.48 101.479 43.48 101.343 43.6168 101.343C43.6168 101.206 43.7536 101.069 43.8903 100.932C44.0271 100.385 44.3006 99.9751 44.4374 99.428L44.7109 98.6074C45.1212 97.103 45.805 95.7354 46.4889 94.3677C46.7624 93.9574 47.1727 93.6839 47.583 93.5471C47.7197 93.5471 47.7197 93.5471 47.7197 93.4104L48.2668 92.3163C52.0962 93.8207 56.0624 94.5045 60.1653 94.5045C62.6271 94.5045 65.0889 94.231 67.5506 93.5471C69.055 93.2736 70.5595 92.7266 71.9271 92.3163L72.4742 93.2736C72.6109 93.2736 72.6109 93.2736 72.6109 93.4104C73.0212 93.5471 73.4315 93.8207 73.705 94.231C74.3889 95.5986 75.0727 96.9663 75.483 98.4707V98.6074L75.7565 99.428C75.8933 99.9751 76.03 100.522 76.3036 100.932C76.4403 101.069 76.4403 101.206 76.5771 101.343C76.5771 101.343 76.5771 101.479 76.7139 101.479C77.2609 102.437 78.2183 103.121 79.3124 103.121C79.7227 103.121 79.9962 102.984 80.4065 102.847C80.9536 102.574 81.5006 102.027 81.6374 101.343C81.7742 100.659 81.7742 99.9751 81.5006 99.2913C81.5006 99.1545 81.3639 99.1545 81.3639 99.1545C81.3639 99.0177 81.2271 98.881 81.0903 98.7442C80.8168 98.1971 80.5433 97.7868 80.133 97.3765C79.9962 97.103 79.8595 96.9663 79.5859 96.6927V96.4192C78.6286 95.1883 77.9448 93.8207 77.3977 92.453C77.2609 92.0427 77.2609 91.4957 77.5345 91.0854C77.5345 90.9486 77.6712 90.9486 77.6712 90.9486L77.2609 89.8545C84.2359 85.6148 89.5698 79.0501 92.0315 71.2545L93.1256 71.3913C93.2624 71.3913 93.2624 71.2545 93.2624 71.2545C93.5359 70.981 93.9462 70.8442 94.3565 70.8442H94.4933C95.9977 71.1177 97.5021 71.528 98.8698 72.0751H99.0065C99.2801 72.2118 99.5536 72.3486 99.8271 72.3486C100.374 72.6221 100.784 72.8957 101.332 73.0324C101.468 73.0324 101.605 73.1692 101.879 73.1692C102.015 73.1692 102.015 73.1692 102.152 73.306C102.426 73.4427 102.562 73.4427 102.836 73.4427C104.067 73.4427 105.161 72.6221 105.571 71.528C105.434 70.0236 104.34 68.9295 103.109 68.656ZM63.5845 64.4162L59.8918 66.1942L56.1992 64.4162L55.2418 60.4501L57.8403 57.1677H61.9433L64.5418 60.4501L63.5845 64.4162ZM85.8771 55.5265C86.5609 58.3986 86.6977 61.2707 86.4242 64.1427L73.4315 60.4501C72.2006 60.1765 71.5168 58.9457 71.7903 57.7148C71.9271 57.3045 72.0639 57.0309 72.3374 56.7574L82.5948 47.4574C84.0992 49.9192 85.1933 52.6545 85.8771 55.5265ZM78.4918 42.3971L67.2771 50.3295C66.3197 50.8765 64.9521 50.7398 64.2683 49.7824C63.9948 49.5089 63.858 49.2354 63.858 48.8251L63.0374 35.0118C69.055 35.6956 74.3889 38.2942 78.4918 42.3971ZM53.7374 35.4221L56.4727 34.8751L55.7889 48.5515C55.7889 49.7824 54.6947 50.7398 53.4639 50.7398C53.0536 50.7398 52.78 50.603 52.3697 50.4662L41.0183 42.3971C44.5742 38.978 48.9506 36.5162 53.7374 35.4221ZM37.0521 47.4574L47.1727 56.4839C48.13 57.3045 48.2668 58.6721 47.4462 59.6295C47.1727 60.0398 46.8992 60.1765 46.3521 60.3133L33.0859 64.1427C32.6756 58.3986 34.0433 52.5177 37.0521 47.4574ZM34.7271 70.5707L48.2668 68.2457C49.3609 68.2457 50.455 68.9295 50.5918 70.0236C50.7286 70.4339 50.7286 70.981 50.455 71.3913L45.258 83.9736C40.4712 80.828 36.6418 76.0412 34.7271 70.5707ZM65.7727 87.5295C63.858 87.9398 61.9433 88.2133 59.8918 88.2133C57.0197 88.2133 54.0109 87.6663 51.2756 86.8457L57.9771 74.6736C58.6609 73.853 59.755 73.5795 60.7124 74.1265C61.1227 74.4001 61.3962 74.6736 61.8065 75.0839L68.3712 86.9824C67.5506 87.1192 66.73 87.256 65.7727 87.5295ZM82.458 75.631C80.4065 78.9133 77.5345 81.7854 74.2521 83.8368L68.9183 70.981C68.6447 69.8868 69.1918 68.7927 70.1492 68.3824C70.5595 68.2457 70.9697 68.1089 71.38 68.1089L85.0565 70.4339C84.3727 72.3486 83.5521 74.1265 82.458 75.631Z" fill="white"/>
</g>
</svg>
