<svg width="70" height="70" viewBox="0 0 70 70" fill="none" xmlns="http://www.w3.org/2000/svg">
<path d="M35 52.5C35.7735 52.5 36.5154 52.1927 37.0624 51.6457C37.6094 51.0988 37.9167 50.3569 37.9167 49.5834V43.75C37.9167 42.9765 37.6094 42.2346 37.0624 41.6876C36.5154 41.1406 35.7735 40.8334 35 40.8334C34.2265 40.8334 33.4846 41.1406 32.9376 41.6876C32.3906 42.2346 32.0833 42.9765 32.0833 43.75V49.5834C32.0833 50.3569 32.3906 51.0988 32.9376 51.6457C33.4846 52.1927 34.2265 52.5 35 52.5ZM35 64.1667C40.4148 64.1667 45.6079 62.0157 49.4368 58.1868C53.2656 54.3579 55.4167 49.1649 55.4167 43.75V26.25C55.4167 20.8352 53.2656 15.6421 49.4368 11.8133C45.6079 7.98438 40.4148 5.83335 35 5.83335C29.5852 5.83335 24.3921 7.98438 20.5632 11.8133C16.7344 15.6421 14.5833 20.8352 14.5833 26.25V43.75C14.5833 49.1649 16.7344 54.3579 20.5632 58.1868C24.3921 62.0157 29.5852 64.1667 35 64.1667ZM20.4167 26.25C20.4167 22.3823 21.9531 18.6729 24.688 15.938C27.4229 13.2031 31.1323 11.6667 35 11.6667C38.8677 11.6667 42.5771 13.2031 45.312 15.938C48.0469 18.6729 49.5833 22.3823 49.5833 26.25V43.75C49.5833 47.6178 48.0469 51.3271 45.312 54.062C42.5771 56.7969 38.8677 58.3334 35 58.3334C31.1323 58.3334 27.4229 56.7969 24.688 54.062C21.9531 51.3271 20.4167 47.6178 20.4167 43.75V26.25Z" fill="black" fill-opacity="0.3"/>
</svg>
